<svg width="13" height="9" viewBox="0 0 13 9" fill="none" xmlns="http://www.w3.org/2000/svg">
<path d="M5.11399 3.58776C5.11399 3.58776 6.313 3.49874 6.313 2.09234C6.313 0.686072 5.33197 0 4.08918 0H1.80175H1.73456H0V7.85854H1.73456H1.80175H4.08918C4.08918 7.85854 6.58547 7.93751 6.58547 5.5391C6.58547 5.5391 6.69446 3.58776 5.11399 3.58776ZM1.80175 1.39688H3.79489H4.08932C4.08932 1.39688 4.64524 1.39688 4.64524 2.21442C4.64524 3.03197 4.31814 3.15048 3.94752 3.15048H1.80175V1.39688ZM3.98377 6.46206H1.80175V4.36179H4.08918C4.08918 4.36179 4.91771 4.35121 4.91771 5.44109C4.91771 6.3499 4.31179 6.45294 3.98377 6.46206Z" fill="#F2C94C"/>
<path d="M11.4668 0.462921H8.2244V1.43072H11.4668V0.462921Z" fill="#F2C94C"/>
<path d="M9.91491 1.99963C6.89286 1.99963 6.8955 5.01877 6.8955 5.01877C6.8955 5.01877 6.68837 8.02297 9.91504 8.02297C9.91504 8.02297 12.6042 8.17666 12.6042 5.93301H11.2212C11.2212 5.93301 11.2673 6.77833 9.9612 6.77833C9.9612 6.77833 8.57834 6.87078 8.57834 5.41068H12.6502C12.6502 5.41068 13.0957 1.99963 9.91491 1.99963ZM11.1442 4.3618H8.56274C8.56274 4.3618 8.73164 3.15049 9.94559 3.15049C11.1597 3.15036 11.1442 4.3618 11.1442 4.3618Z" fill="#F2C94C"/>
</svg>
