<svg width="28" height="17" viewBox="0 0 28 17" fill="none" xmlns="http://www.w3.org/2000/svg">
<path d="M11.4675 7.68221C11.4675 7.68221 13.9577 7.49733 13.9577 4.57634C13.9577 1.65563 11.9202 0.230713 9.33905 0.230713H4.58822H4.44867H0.84613V16.5523H4.44867H4.58822H9.33905C9.33905 16.5523 14.5236 16.7163 14.5236 11.735C14.5239 11.735 14.75 7.68221 11.4675 7.68221ZM4.58822 3.13192H8.72782H9.33932C9.33932 3.13192 10.4939 3.13192 10.4939 4.8299C10.4939 6.52788 9.81457 6.77402 9.04484 6.77402H4.58822V3.13192ZM9.12011 13.6519H4.58822V9.28981H9.33905C9.33905 9.28981 11.0598 9.26783 11.0598 11.5314C11.0598 13.419 9.80138 13.633 9.12011 13.6519Z" fill="#F2C94C"/>
<path d="M24.6618 1.19214H17.9276V3.20219H24.6618V1.19214Z" fill="#F2C94C"/>
<path d="M21.4386 4.38354C15.1621 4.38354 15.1676 10.6541 15.1676 10.6541C15.1676 10.6541 14.7374 16.8935 21.4389 16.8935C21.4389 16.8935 27.024 17.2128 27.024 12.5529H24.1517C24.1517 12.5529 24.2475 14.3085 21.5348 14.3085C21.5348 14.3085 18.6627 14.5005 18.6627 11.468H27.1196C27.1196 11.468 28.0448 4.38354 21.4386 4.38354ZM23.9918 9.28958H18.6303C18.6303 9.28958 18.9811 6.77379 21.5024 6.77379C24.0239 6.77352 23.9918 9.28958 23.9918 9.28958Z" fill="#F2C94C"/>
</svg>
