<svg width="23" height="23" viewBox="0 0 23 23" fill="none" xmlns="http://www.w3.org/2000/svg">
<path d="M3.83335 9.76161H8.81668C9.02866 9.76161 9.20001 9.58988 9.20001 9.37828C9.20001 9.16668 9.02866 8.99495 8.81668 8.99495H3.83335C3.62136 8.99495 3.45001 9.16668 3.45001 9.37828C3.45001 9.58988 3.62136 9.76161 3.83335 9.76161Z" fill="black"/>
<path d="M13.8 11.2949H3.83335C3.62136 11.2949 3.45001 11.4667 3.45001 11.6783C3.45001 11.8899 3.62136 12.0616 3.83335 12.0616H13.8C14.012 12.0616 14.1833 11.8899 14.1833 11.6783C14.1833 11.4667 14.012 11.2949 13.8 11.2949Z" fill="black"/>
<path d="M13.8 13.5949H3.83335C3.62136 13.5949 3.45001 13.7667 3.45001 13.9783C3.45001 14.1899 3.62136 14.3616 3.83335 14.3616H13.8C14.012 14.3616 14.1833 14.1899 14.1833 13.9783C14.1833 13.7667 14.012 13.5949 13.8 13.5949Z" fill="black"/>
<path d="M20.7276 0.97178L7.63983 0.944946C6.38633 0.944946 5.36667 1.96461 5.36667 3.21811V5.18231L2.27317 5.18883C1.01967 5.18883 0 6.2085 0 7.462V15.566C0 16.8195 1.01967 17.8388 2.27317 17.8388H4.6V21.6722C4.6 21.8305 4.69737 21.9727 4.84533 22.0298C4.89018 22.0471 4.93695 22.0555 4.98333 22.0555C5.08913 22.0555 5.19302 22.0114 5.267 21.9301L8.98687 17.8381L15.3602 17.812C16.6137 17.812 17.6333 16.7923 17.6333 15.5392V15.4959L19.6497 17.7139C19.7236 17.7951 19.8275 17.8392 19.9333 17.8392C19.9797 17.8392 20.0265 17.8308 20.0713 17.8135C20.2193 17.7564 20.3167 17.6142 20.3167 17.4559V13.6225H20.7268C21.9803 13.6225 23 12.6029 23 11.3498V3.24495C23 1.99183 21.9807 0.972163 20.7276 0.97178ZM16.8667 15.5388C16.8667 16.3695 16.1909 17.0449 15.3586 17.0449L8.81513 17.0718C8.7078 17.0722 8.60507 17.1178 8.533 17.1971L5.36667 20.6805V17.4551C5.36667 17.2435 5.19532 17.0718 4.98333 17.0718H2.27317C1.44248 17.0718 0.766667 16.396 0.766667 15.5657V7.46161C0.766667 6.63093 1.44248 5.95511 2.27393 5.95511L5.75 5.94783C5.75038 5.94783 5.75038 5.94783 5.75077 5.94783L15.3602 5.9279C16.1908 5.9279 16.8667 6.60371 16.8667 7.4344V14.5034V15.5388ZM22.2333 11.349C22.2333 12.1797 21.5575 12.8551 20.7268 12.8551H19.9333C19.7213 12.8551 19.55 13.0268 19.55 13.2384V16.4638L17.6333 14.3555V7.43478C17.6333 6.18128 16.6137 5.16161 15.3594 5.16161L6.13333 5.1804V3.21773C6.13333 2.38705 6.80915 1.71123 7.63907 1.71123L20.7264 1.73806C20.7268 1.73806 20.7268 1.73806 20.7272 1.73806C21.5579 1.73806 22.2337 2.41388 22.2337 3.24456V11.349H22.2333Z" fill="black"/>
</svg>
