<svg width="16" height="27" viewBox="0 0 16 27" fill="none" xmlns="http://www.w3.org/2000/svg">
<path d="M14.9141 0.0056178L11.427 0C7.50931 0 4.97755 2.60806 4.97755 6.64474V9.7084H1.47141C1.16844 9.7084 0.923096 9.95503 0.923096 10.2592V14.6981C0.923096 15.0023 1.16872 15.2487 1.47141 15.2487H4.97755V26.4495C4.97755 26.7537 5.22289 27 5.52587 27H10.1004C10.4034 27 10.6487 26.7534 10.6487 26.4495V15.2487H14.7482C15.0512 15.2487 15.2965 15.0023 15.2965 14.6981L15.2982 10.2592C15.2982 10.1132 15.2403 9.97328 15.1376 9.86992C15.0349 9.76655 14.8951 9.7084 14.7496 9.7084H10.6487V7.11129C10.6487 5.86302 10.945 5.22933 12.5644 5.22933L14.9135 5.22849C15.2162 5.22849 15.4616 4.98187 15.4616 4.67794V0.556162C15.4616 0.25252 15.2165 0.00617958 14.9141 0.0056178Z" fill="#F2C94C"/>
</svg>
