<svg width="50" height="50" viewBox="0 0 50 50" fill="none" xmlns="http://www.w3.org/2000/svg">
<path d="M50 41.7548V35.6638L47.6669 35.0677C47.6507 35.0283 47.6346 34.9889 47.6177 34.9499L48.8458 32.8799L44.5387 28.5727L42.4687 29.8009C42.4289 29.784 42.3895 29.7678 42.3509 29.7517L41.7547 27.4194H35.6638L35.0677 29.7525C35.0283 29.7686 34.9889 29.7848 34.9499 29.8017L32.8798 28.5735L28.5727 32.8806L29.8009 34.9507C29.784 34.9905 29.7678 35.0299 29.7517 35.0685L27.4194 35.6646V41.7555L29.7525 42.3517C29.7686 42.3911 29.7848 42.4305 29.8017 42.4695L28.5735 44.5395L32.8806 48.8467L34.9507 47.6185C34.9905 47.6354 35.0299 47.6515 35.0684 47.6677L35.6646 50H41.7555L42.3517 47.6669C42.3911 47.6508 42.4305 47.6346 42.4694 47.6177L44.5395 48.8459L48.8466 44.5387L47.6185 42.4687C47.6354 42.4289 47.6515 42.3895 47.6677 42.3509L50 41.7548ZM46.8203 44.2848L44.2847 46.8203L42.5612 45.7976L42.1733 45.9831C41.9233 46.1016 41.6677 46.2087 41.4047 46.3017L40.9983 46.4458L40.5033 48.3871H36.9168L36.4218 46.4458L36.0155 46.3017C35.7524 46.2095 35.4961 46.1024 35.2468 45.9831L34.859 45.7976L33.1354 46.8203L30.5999 44.2848L31.6225 42.5612L31.437 42.1733C31.3185 41.9233 31.2114 41.6677 31.1185 41.4047L30.9744 40.9983L29.0323 40.5033V36.9168L30.9736 36.4219L31.1177 36.0155C31.2098 35.7524 31.3169 35.4961 31.4363 35.2468L31.6217 34.859L30.5991 33.1354L33.1346 30.5999L34.8582 31.6225L35.246 31.4371C35.4961 31.3185 35.7516 31.2114 36.0147 31.1185L36.4211 30.9744L36.916 29.0323H40.5025L40.9975 30.9736L41.4039 31.1177C41.6669 31.2099 41.9233 31.317 42.1725 31.4363L42.5604 31.6217L44.284 30.5991L46.8195 33.1346L45.7968 34.8582L45.9823 35.246C46.1008 35.4961 46.2079 35.7517 46.3009 36.0147L46.445 36.4211L48.3871 36.916V40.5026L46.4458 40.9975L46.3017 41.4039C46.2095 41.6669 46.1024 41.9233 45.9831 42.1726L45.7976 42.5604L46.8203 44.2848Z" fill="#1AF107"/>
<path d="M38.7097 32.2581C35.1523 32.2581 32.2581 35.1523 32.2581 38.7097C32.2581 42.267 35.1523 45.1613 38.7097 45.1613C42.267 45.1613 45.1613 42.267 45.1613 38.7097C45.1613 35.1523 42.267 32.2581 38.7097 32.2581ZM38.7097 43.5484C36.0411 43.5484 33.871 41.3783 33.871 38.7097C33.871 36.0411 36.0411 33.871 38.7097 33.871C41.3783 33.871 43.5484 36.0411 43.5484 38.7097C43.5484 41.3783 41.3783 43.5484 38.7097 43.5484Z" fill="#1AF107"/>
<path d="M38.7097 35.4839C36.9306 35.4839 35.4839 36.9306 35.4839 38.7097C35.4839 40.4888 36.9306 41.9355 38.7097 41.9355C40.4888 41.9355 41.9355 40.4888 41.9355 38.7097C41.9355 36.9306 40.4888 35.4839 38.7097 35.4839ZM38.7097 40.3226C37.8201 40.3226 37.0968 39.5992 37.0968 38.7097C37.0968 37.8202 37.8201 37.0968 38.7097 37.0968C39.5992 37.0968 40.3226 37.8202 40.3226 38.7097C40.3226 39.5992 39.5992 40.3226 38.7097 40.3226Z" fill="#1AF107"/>
<path d="M20.4235 13.6549C20.6937 14.4468 21.1638 15.145 21.7742 15.6935V16.3775L17.9396 17.8152C16.3744 18.4015 15.3226 19.9187 15.3226 21.5903V25.8064H34.6774V21.5903C34.6774 19.9187 33.6256 18.4015 32.0612 17.8144L28.2258 16.3767V15.6935C28.8362 15.1458 29.3063 14.4476 29.5765 13.6549C31.096 13.3943 32.2581 12.0759 32.2581 10.4839V7.25806C32.2581 3.25652 29.0023 0 25 0C20.9977 0 17.7419 3.25652 17.7419 7.25806V10.4839C17.7419 12.0759 18.904 13.3943 20.4235 13.6549ZM26.6129 16.7122L25 19.4001L23.3871 16.7122V16.6531C23.8927 16.8331 24.4337 16.9355 25 16.9355C25.5662 16.9355 26.1073 16.8323 26.6129 16.6531V16.7122ZM22.2345 17.9266L23.8604 20.6354L22.2451 21.4426L21.2016 18.3137L22.2345 17.9266ZM33.0645 21.5903V24.1935H16.9355V21.5903C16.9355 20.587 17.5663 19.6773 18.5055 19.3249L19.6911 18.8807L21.3032 23.7179L25 21.8695L28.6968 23.7179L30.3089 18.8807L31.4953 19.3257C32.4337 19.6773 33.0645 20.587 33.0645 21.5903ZM28.7984 18.3137L27.7548 21.4434L26.1396 20.6362L27.7655 17.9266L28.7984 18.3137ZM25 15.3226C23.2209 15.3226 21.7742 13.8758 21.7742 12.0968V8.81623C22.9547 8.6918 24.0687 8.2614 25 7.52898C25.9313 8.26219 27.0453 8.6918 28.2258 8.81623V12.0968C28.2258 13.8758 26.7791 15.3226 25 15.3226ZM29.8387 11.8727V9.09581C30.3187 9.37579 30.6452 9.89045 30.6452 10.4847C30.6452 11.0789 30.3187 11.5927 29.8387 11.8727ZM25 1.6129C28.112 1.6129 30.6452 4.14527 30.6452 7.25806V7.70657C30.1687 7.42896 29.6225 7.25806 29.0323 7.25806H28.8936C27.6379 7.25806 26.4574 6.76939 25.5702 5.88143L25 5.31045L24.4298 5.88143C23.5418 6.76939 22.3621 7.25806 21.1063 7.25806H20.9677C20.3775 7.25806 19.8313 7.42896 19.3548 7.70657V7.25806C19.3548 4.14527 21.888 1.6129 25 1.6129ZM20.1613 9.09503V11.8719C19.6813 11.592 19.3548 11.0773 19.3548 10.4831C19.3548 9.88888 19.6813 9.375 20.1613 9.09503Z" fill="#1AF107"/>
<path d="M0 50H16.129V29.0322H0V50ZM1.6129 30.6451H14.5161V48.3871H1.6129V30.6451Z" fill="#1AF107"/>
<path d="M3.2258 32.2581H12.9032V33.871H3.2258V32.2581Z" fill="#1AF107"/>
<path d="M3.2258 35.4839H4.8387V37.0968H3.2258V35.4839Z" fill="#1AF107"/>
<path d="M6.45161 35.4839H12.9032V37.0968H6.45161V35.4839Z" fill="#1AF107"/>
<path d="M3.2258 38.7097H12.9032V40.3226H3.2258V38.7097Z" fill="#1AF107"/>
<path d="M3.2258 41.9355H12.9032V43.5484H3.2258V41.9355Z" fill="#1AF107"/>
<path d="M11.2903 45.1613H12.9032V46.7742H11.2903V45.1613Z" fill="#1AF107"/>
<path d="M3.2258 45.1613H9.67741V46.7742H3.2258V45.1613Z" fill="#1AF107"/>
<path d="M21.5379 36.0541L20.3976 34.9137L16.6016 38.7097L20.3976 42.5057L21.5379 41.3653L19.6888 39.5161H25.8064V37.9032H19.6888L21.5379 36.0541Z" fill="#1AF107"/>
<path d="M8.87096 12.9032C8.87096 12.459 9.23245 12.0968 9.67741 12.0968H13.3757L11.5266 13.9459L12.667 15.0863L16.4629 11.2903L12.667 7.49432L11.5266 8.6347L13.3757 10.4839H9.67741C8.34369 10.4839 7.25806 11.5695 7.25806 12.9032V27.4193H8.87096V12.9032Z" fill="#1AF107"/>
<path d="M38.7097 12.9032V23.0532L36.8605 21.204L35.7201 22.3444L39.5161 26.1404L43.3121 22.3444L42.1718 21.204L40.3226 23.0532V12.9032C40.3226 11.5695 39.2369 10.4839 37.9032 10.4839H33.871V12.0968H37.9032C38.3482 12.0968 38.7097 12.4591 38.7097 12.9032Z" fill="#1AF107"/>
</svg>
