<svg width="50" height="47" viewBox="0 0 50 47" fill="none" xmlns="http://www.w3.org/2000/svg">
<path d="M49.9 19.5155C49.7266 19.1464 49.3564 18.9102 48.9468 18.9102H45.8331C43.8533 8.16685 34.4195 0 23.1123 0C10.3689 0 0 10.3689 0 23.1123C0 35.8556 10.3679 46.2235 23.1123 46.2235C31.3366 46.2235 39.0066 41.797 43.1289 34.6737C43.7097 33.6684 43.3672 32.3844 42.3608 31.8025C41.3566 31.2206 40.0715 31.5632 39.4917 32.5685C36.1173 38.3992 29.8409 42.0225 23.1123 42.0225C12.6859 42.0225 4.20204 33.5397 4.20204 23.1144C4.20204 12.687 12.6859 4.20417 23.1123 4.20417C32.0929 4.20417 39.6172 10.503 41.5342 18.9113H38.4449C38.0354 18.9113 37.6662 19.1475 37.4918 19.5166C37.3184 19.8858 37.3747 20.3208 37.6364 20.6347L42.8895 26.9377C43.0895 27.1771 43.3842 27.3154 43.6969 27.3154C44.0086 27.3154 44.3044 27.176 44.5033 26.9377L49.7564 20.6347C50.0181 20.3198 50.0734 19.8847 49.9 19.5155Z" fill="#1AF107"/>
<path d="M23.1123 5.25305C21.9517 5.25305 21.0113 6.19346 21.0113 7.35407V20.1027C20.0613 20.7687 19.4358 21.8665 19.4358 23.1133C19.4358 25.1409 21.0857 26.7909 23.1133 26.7909C23.6686 26.7909 24.192 26.6579 24.6644 26.4356L31.9727 30.6536C32.3046 30.8461 32.6642 30.9365 33.0216 30.9365C33.7472 30.9365 34.4535 30.56 34.8429 29.8855C35.4226 28.8823 35.079 27.5962 34.0727 27.0164L26.7569 22.792C26.659 21.6814 26.0814 20.7112 25.2154 20.1049V7.35407C25.2133 6.19452 24.2718 5.25305 23.1123 5.25305ZM23.1123 24.6877C22.2431 24.6877 21.5368 23.9803 21.5368 23.1133C21.5368 22.2452 22.2442 21.5378 23.1123 21.5378C23.9803 21.5378 24.6878 22.2452 24.6878 23.1133C24.6878 23.9803 23.9803 24.6877 23.1123 24.6877Z" fill="#1AF107"/>
</svg>
