<svg width="50" height="50" viewBox="0 0 50 50" fill="none" xmlns="http://www.w3.org/2000/svg">
<path d="M20.8443 3.33472C11.183 3.33472 3.35095 11.1667 3.35095 20.8281C3.35095 30.4894 11.183 38.3215 20.8443 38.3215C30.5057 38.3215 38.3377 30.4894 38.3377 20.8281C38.3272 11.1711 30.5013 3.34523 20.8443 3.33472ZM20.8443 5.00075C25.9899 5.00481 30.8117 7.51261 33.7694 11.7232L31.6869 13.8057C31.1801 13.4991 30.5999 13.335 30.0075 13.3309C28.1673 13.3309 26.6754 14.8228 26.6754 16.663C26.6784 17.256 26.8415 17.8371 27.1478 18.3449L21.6932 23.7995C20.6603 23.1697 19.3623 23.1697 18.3294 23.7995L14.5409 20.0109C14.8471 19.5032 15.0103 18.922 15.0132 18.329C15.0155 16.4924 13.5286 15.0018 11.692 14.9995C10.1731 14.9976 8.84595 16.025 8.46735 17.496H5.37685C6.95407 10.2126 13.3921 5.01169 20.8443 5.00075ZM31.6735 16.663C31.6735 17.5832 30.9277 18.329 30.0075 18.329C29.0873 18.329 28.3415 17.5832 28.3415 16.663C28.3415 15.7428 29.0873 14.997 30.0075 14.997C30.9277 14.997 31.6735 15.7428 31.6735 16.663ZM21.6773 26.6592C21.6773 27.5794 20.9315 28.3252 20.0113 28.3252C19.0911 28.3252 18.3453 27.5794 18.3453 26.6592C18.3453 25.739 19.0911 24.9932 20.0113 24.9932C20.9315 24.9932 21.6773 25.739 21.6773 26.6592ZM13.3472 18.329C13.3472 19.2492 12.6013 19.9951 11.6811 19.9951C10.761 19.9951 10.0151 19.2492 10.0151 18.329C10.0151 17.4089 10.761 16.663 11.6811 16.663C12.6013 16.663 13.3472 17.4089 13.3472 18.329ZM28.5345 34.6672C26.1821 35.9734 23.5352 36.6577 20.8443 36.6553C12.1091 36.6612 5.02292 29.5849 5.01699 20.8496C5.01657 20.2859 5.04635 19.7225 5.10612 19.1619H8.46735C8.84606 20.6286 10.1664 21.6553 11.6811 21.661C12.2741 21.6581 12.8553 21.4949 13.363 21.1887L17.1516 24.9772C16.8453 25.485 16.6821 26.0661 16.6792 26.6591C16.6792 28.4993 18.1711 29.9912 20.0113 29.9912C21.8515 29.9912 23.3434 28.4993 23.3434 26.6591C23.3405 26.0661 23.1773 25.485 22.871 24.9772L28.3256 19.5226C28.8334 19.8289 29.4145 19.992 30.0075 19.995C31.8478 19.995 33.3396 18.5031 33.3396 16.6629C33.3367 16.0699 33.1735 15.4888 32.8673 14.981L34.6832 13.1659C38.9228 20.8013 36.1699 30.4278 28.5345 34.6672Z" fill="#1AF107"/>
<path d="M41.6698 8.33285C43.1845 8.32712 44.5049 7.30053 44.8836 5.8338H50V4.16776H44.8836C44.5049 2.70103 43.1845 1.67444 41.6698 1.66871C39.8296 1.66871 38.3377 3.16054 38.3377 5.00078C38.3406 5.59378 38.5038 6.17492 38.81 6.68264L37.3464 8.14626C30.3434 -0.977474 17.27 -2.69661 8.14625 4.30646C-0.977474 11.3095 -2.69661 24.383 4.30646 33.5067C10.9169 42.1188 23.0343 44.2079 32.1467 38.3065L34.6608 40.8205L35.8387 41.9984L42.5445 48.7042C44.25 50.4097 47.015 50.4097 48.7205 48.7042C50.4259 46.9987 50.4259 44.2337 48.7205 42.5282L42.0147 35.8224L40.8368 34.6445L38.3227 32.1305C42.7855 25.2564 42.7855 16.3999 38.3227 9.52573L39.9888 7.8597C40.4962 8.16604 41.0771 8.32952 41.6698 8.33285ZM41.6698 3.33475C42.59 3.33475 43.3358 4.08061 43.3358 5.00078C43.3358 5.92095 42.59 6.66682 41.6698 6.66682C40.7496 6.66682 40.0038 5.92095 40.0038 5.00078C40.0038 4.08061 40.7497 3.33475 41.6698 3.33475ZM47.5426 43.7061C48.6094 44.749 48.6289 46.4594 47.586 47.5263C46.543 48.5932 44.8327 48.6127 43.7658 47.5697C43.7511 47.5555 43.7367 47.541 43.7223 47.5263L37.0166 40.8205L40.8368 37.0003L47.5426 43.7061ZM39.6589 35.8224L35.8387 39.6426L33.5329 37.3369C33.6503 37.2469 33.7603 37.1478 33.8761 37.0553C33.9919 36.9628 34.126 36.852 34.2501 36.7479C34.4325 36.5946 34.6125 36.4397 34.7891 36.2806C34.8799 36.1973 34.9665 36.114 35.0556 36.0307C35.3972 35.7108 35.7279 35.3801 36.0478 35.0386C36.1311 34.9494 36.2144 34.8628 36.2977 34.772C36.4568 34.5954 36.6117 34.4155 36.765 34.233C36.8694 34.1097 36.9719 33.9851 37.0724 33.859C37.164 33.7441 37.2631 33.6341 37.3531 33.5166L39.6589 35.8224ZM36.4284 31.9531C36.166 32.3196 35.8953 32.6786 35.6096 33.0243C35.5263 33.1251 35.4372 33.2226 35.3514 33.3217C35.0965 33.6183 34.8332 33.906 34.5617 34.1847C34.4434 34.3069 34.3231 34.4271 34.201 34.5454C33.9232 34.817 33.6356 35.0802 33.3379 35.3351C33.2388 35.4184 33.1414 35.5092 33.0406 35.5934C32.6949 35.8791 32.3358 36.1498 31.9693 36.4122C23.3459 42.5729 11.361 40.5765 5.20029 31.9531C-0.960397 23.3297 1.03603 11.3447 9.65943 5.18404C18.2828 -0.976641 30.2678 1.01969 36.4284 9.64319C41.1955 16.3159 41.1955 25.2804 36.4284 31.9531Z" fill="#1AF107"/>
</svg>
