<svg width="50" height="50" viewBox="0 0 50 50" fill="none" xmlns="http://www.w3.org/2000/svg">
<path d="M27.8404 8.9021H10.7957C9.54042 8.9021 8.52234 9.92018 8.52234 11.1744C8.52234 12.4287 9.54042 13.4468 10.7957 13.4468H27.8404C29.0979 13.4468 30.1138 12.4287 30.1138 11.1744C30.1128 9.92018 29.0968 8.9021 27.8404 8.9021Z" fill="#1AF107"/>
<path d="M30.1128 19.6968C30.1128 18.4415 29.0968 17.4244 27.8394 17.4244H10.7957C9.54042 17.4244 8.52234 18.4425 8.52234 19.6968C8.52234 20.9521 9.54042 21.9702 10.7957 21.9702H27.8404C29.0968 21.9702 30.1128 20.9521 30.1128 19.6968Z" fill="#1AF107"/>
<path d="M19.3191 30.4926C20.5745 30.4926 21.5915 29.4745 21.5915 28.2202C21.5915 26.9649 20.5745 25.9468 19.3191 25.9468H10.7957C9.54042 25.9468 8.52234 26.9649 8.52234 28.2202C8.52234 29.4756 9.54042 30.4926 10.7957 30.4926H19.3191Z" fill="#1AF107"/>
<path d="M36.4745 38.2234L34.0904 39.7968V45.4543H4.54574V4.54574H34.0904V13.5266L38.6362 5.65319V2.27234C38.6362 1.01702 37.6181 0 36.3628 0H2.27234C1.01702 0 0 1.01808 0 2.27234V47.7287C0 48.984 1.01702 50.0011 2.27234 50.0011H36.3628C37.6191 50.0011 38.6372 48.983 38.6372 47.7287V35.2021L37.5511 37.0808C37.2862 37.5394 36.9138 37.934 36.4745 38.2234Z" fill="#1AF107"/>
<path d="M49.9138 10.5255C49.867 10.3213 49.3872 8.48511 46.4957 6.81489C43.6042 5.14574 41.7745 5.64787 41.5723 5.71064C41.301 5.79681 41.0723 5.97979 40.9298 6.2266L26.7255 30.8287C26.6372 30.983 26.5851 31.1543 26.5745 31.3309L26.0425 40.2085C26.017 40.6383 26.2362 41.0447 26.6074 41.2606C26.9819 41.4755 27.4425 41.4606 27.8021 41.2255L35.2245 36.3255C35.3723 36.2298 35.4947 36.0989 35.583 35.9468L49.7883 11.3404C49.9308 11.0936 49.9744 10.8043 49.9138 10.5255ZM30.6659 37.2926C30.2883 36.9872 29.8596 36.6989 29.3989 36.4319C28.9362 36.1649 28.4723 35.9404 28.0191 35.7638L28.1776 33.1021C28.7702 33.1798 29.6489 33.4202 30.7649 34.0628C31.8798 34.7064 32.5255 35.3489 32.8915 35.8223L30.6659 37.2926Z" fill="#1AF107"/>
<path d="M15.8447 40.9936C15.9191 41.45 16.4457 41.5915 16.7979 41.7383C17.1383 41.8819 17.5447 41.6096 17.8277 41.4723C19.5617 40.6287 21.9106 41.6202 23.7681 41.6202C24.867 41.6202 24.867 39.9159 23.7681 39.9159C21.6021 39.9159 19.8 39.3681 17.6532 39.7223C17.6532 39.5979 17.6074 39.4298 17.4734 39.201C17.0723 38.5149 16.5617 38.3202 16.05 38.4032C16.016 38.3223 15.983 38.2415 15.9351 38.1596C15.8011 37.9404 15.6138 37.8308 15.4032 37.7851C16.0021 36.7383 16.3883 35.6308 15.9957 34.7351C15.8755 34.4628 15.534 34.3234 15.2596 34.3128C14.1213 34.2702 13.1447 35.4649 12.4128 36.1819C10.5819 37.9766 8.96915 40.0138 7.40851 42.0415C6.7383 42.9127 8.22021 43.7596 8.87979 42.9032C10.2628 41.1074 11.7277 39.3638 13.3043 37.733C12.9245 38.3564 12.5213 38.9681 12.0968 39.5574C11.4904 40.4947 12.9383 41.2925 13.5681 40.4181C13.7181 40.1893 13.9085 40.0245 14.117 39.883C14.0755 39.9883 14.033 40.0915 13.9904 40.1979C13.9926 40.1979 13.9947 40.1989 13.9968 40.2C13.9638 40.2681 13.9308 40.3362 13.9043 40.401C13.5234 41.3553 14.9457 41.7925 15.4628 41.0564C15.5936 40.8713 15.7149 40.6734 15.8245 40.4659C15.817 40.6085 15.8138 40.8 15.8447 40.9936Z" fill="#1AF107"/>
</svg>
