<svg width="45" height="50" viewBox="0 0 45 50" fill="none" xmlns="http://www.w3.org/2000/svg">
<path d="M22.6059 27.2879C22.5134 27.2678 22.4185 27.2642 22.3248 27.2783C21.3857 27.1689 20.6773 26.3744 20.6757 25.4293C20.6757 24.9764 20.3085 24.6092 19.8556 24.6092C19.4026 24.6092 19.0354 24.9764 19.0354 25.4293C19.0378 27.0075 20.0934 28.3899 21.6152 28.8076V29.6278C21.6152 30.0807 21.9824 30.4479 22.4353 30.4479C22.8883 30.4479 23.2555 30.0807 23.2555 29.6278V28.8573C25.0119 28.4897 26.2057 26.8538 26.0211 25.0689C25.8361 23.2841 24.3323 21.9277 22.5379 21.9273C21.5095 21.9273 20.6757 21.0935 20.6757 20.0651C20.6757 19.0368 21.5095 18.203 22.5379 18.203C23.5662 18.203 24.4 19.0368 24.4 20.0651C24.4 20.5181 24.7672 20.8853 25.2201 20.8853C25.6731 20.8853 26.0403 20.5181 26.0403 20.0651C26.0379 18.408 24.877 16.9788 23.2555 16.6368V15.8903C23.2555 15.4374 22.8883 15.0702 22.4353 15.0702C21.9824 15.0702 21.6152 15.4374 21.6152 15.8903V16.6869C19.9228 17.149 18.8336 18.7921 19.0667 20.5309C19.2997 22.2697 20.7834 23.5676 22.5379 23.5672C23.5526 23.5672 24.3804 24.3797 24.3988 25.3941C24.4176 26.4085 23.6199 27.251 22.6059 27.2879V27.2879Z" fill="#1AF107"/>
<path d="M10.645 22.8103C10.645 29.3786 15.9695 34.7032 22.5379 34.7032C29.1063 34.7032 34.4308 29.3786 34.4308 22.8103C34.4308 16.2419 29.1063 10.9174 22.5379 10.9174C15.9728 10.9246 10.6526 16.2451 10.645 22.8103ZM22.5379 12.5576C28.2004 12.5576 32.7905 17.1477 32.7905 22.8103C32.7905 28.4728 28.2004 33.0629 22.5379 33.0629C16.8754 33.0629 12.2853 28.4728 12.2853 22.8103C12.2917 17.1505 16.8782 12.5641 22.5379 12.5576Z" fill="#1AF107"/>
<path d="M38.4738 36.7251L32.0492 39.7606C31.1622 38.1107 29.4606 37.0607 27.5881 37.0078L21.6572 36.8448C20.7182 36.818 19.7967 36.5801 18.9617 36.1488L18.3582 35.8361C15.2683 34.2254 11.5852 34.2294 8.4985 35.8465L8.53614 34.4793C8.54855 34.0264 8.19174 33.6491 7.73882 33.6367L1.23534 33.4577C0.782415 33.4453 0.405581 33.8021 0.393167 34.255L0.000314356 48.5267C-0.0120999 48.9796 0.344711 49.3568 0.797632 49.3692L7.30112 49.5482H7.32354C7.76806 49.5482 8.13167 49.1946 8.14369 48.7505L8.16251 48.0677L9.85205 47.1631C10.5152 46.8063 11.2905 46.7214 12.0149 46.9264L22.1042 49.7581C22.1218 49.7633 22.1394 49.7673 22.1574 49.7713C22.8867 49.9239 23.6299 50.0004 24.3748 50C25.9526 50.0008 27.512 49.6608 28.946 49.0024C28.9813 48.9864 29.0153 48.9676 29.0477 48.9464L43.6762 39.4843C44.0406 39.2484 44.1583 38.7698 43.9449 38.3918C42.8588 36.4648 40.4501 35.7307 38.4738 36.7251V36.7251ZM1.66263 47.7522L2.01023 35.12L6.87383 35.2538L6.52623 47.8863L1.66263 47.7522ZM28.2072 47.5375C26.4255 48.3417 24.4356 48.5635 22.5206 48.1723L12.4587 45.3478C11.3262 45.0278 10.114 45.1604 9.07796 45.7174L8.21457 46.18L8.44564 37.7811C11.1816 35.9614 14.6904 35.7744 17.6042 37.2925L18.2077 37.6053C19.2625 38.1499 20.4258 38.4503 21.6124 38.4847L27.5436 38.6477C29.2095 38.6957 30.6244 39.8819 30.9624 41.5142L22.1278 41.2703C21.6749 41.2579 21.298 41.6151 21.2852 42.0676C21.2728 42.5205 21.63 42.8978 22.0825 42.9102L31.8322 43.1785H31.855C32.2991 43.1781 32.6623 42.8245 32.6743 42.3808C32.6843 42.0244 32.6579 41.6676 32.595 41.3168L39.1846 38.2032C39.191 38.2004 39.1974 38.1972 39.2038 38.194C40.1385 37.721 41.2686 37.8792 42.0375 38.5908L28.2072 47.5375Z" fill="#1AF107"/>
<path d="M23.358 8.61152V0.820144C23.358 0.367223 22.9908 0 22.5379 0C22.0849 0 21.7177 0.367223 21.7177 0.820144V8.61152C21.7177 9.06444 22.0849 9.43166 22.5379 9.43166C22.9908 9.43166 23.358 9.06444 23.358 8.61152Z" fill="#1AF107"/>
<path d="M29.5091 8.6115V4.92085C29.5091 4.46793 29.1419 4.10071 28.689 4.10071C28.2361 4.10071 27.8688 4.46793 27.8688 4.92085V8.6115C27.8688 9.06442 28.2361 9.43165 28.689 9.43165C29.1419 9.43165 29.5091 9.06442 29.5091 8.6115Z" fill="#1AF107"/>
<path d="M17.2069 8.6115V4.92085C17.2069 4.46793 16.8397 4.10071 16.3868 4.10071C15.9339 4.10071 15.5667 4.46793 15.5667 4.92085V8.6115C15.5667 9.06442 15.9339 9.43165 16.3868 9.43165C16.8397 9.43165 17.2069 9.06442 17.2069 8.6115Z" fill="#1AF107"/>
</svg>
