<svg width="23" height="23" viewBox="0 0 23 23" fill="none" xmlns="http://www.w3.org/2000/svg">
<path d="M16.52 0.153809H6.62967C3.27097 0.153809 0.538452 2.88646 0.538452 6.24515V16.1354C0.538452 19.4943 3.27097 22.2268 6.62967 22.2268H16.52C19.8789 22.2268 22.6114 19.4941 22.6114 16.1354V6.24515C22.6116 2.88646 19.8789 0.153809 16.52 0.153809ZM20.6531 16.1354C20.6531 18.4144 18.799 20.2684 16.5201 20.2684H6.62967C4.35085 20.2685 2.49687 18.4144 2.49687 16.1354V6.24515C2.49687 3.96633 4.35085 2.11223 6.62967 2.11223H16.52C18.7989 2.11223 20.653 3.96633 20.653 6.24515V16.1354H20.6531Z" fill="#F2C94C"/>
<path d="M11.575 5.50293C8.43876 5.50293 5.88733 8.05436 5.88733 11.1906C5.88733 14.3267 8.43876 16.878 11.575 16.878C14.7112 16.878 17.2626 14.3267 17.2626 11.1906C17.2626 8.05436 14.7112 5.50293 11.575 5.50293ZM11.575 14.9194C9.51877 14.9194 7.84575 13.2467 7.84575 11.1904C7.84575 9.13411 9.51864 7.46122 11.575 7.46122C13.6313 7.46122 15.3042 9.13411 15.3042 11.1904C15.3042 13.2467 13.6312 14.9194 11.575 14.9194Z" fill="#F2C94C"/>
<path d="M17.5011 3.84229C17.1238 3.84229 16.7531 3.99504 16.4867 4.26269C16.2189 4.52904 16.0649 4.89983 16.0649 5.27846C16.0649 5.65591 16.219 6.02658 16.4867 6.29423C16.753 6.56058 17.1238 6.71464 17.5011 6.71464C17.8797 6.71464 18.2492 6.56058 18.5169 6.29423C18.7845 6.02658 18.9373 5.65578 18.9373 5.27846C18.9373 4.89983 18.7845 4.52904 18.5169 4.26269C18.2505 3.99504 17.8797 3.84229 17.5011 3.84229Z" fill="#F2C94C"/>
</svg>
