<svg width="11" height="11" viewBox="0 0 11 11" fill="none" xmlns="http://www.w3.org/2000/svg">
<path d="M7.6948 0H2.93281C1.31566 0 0 1.31572 0 2.93287V7.69486C0 9.31208 1.31566 10.6277 2.93281 10.6277H7.6948C9.31208 10.6277 10.6277 9.31201 10.6277 7.69486V2.93287C10.6278 1.31572 9.31208 0 7.6948 0ZM9.68485 7.69486C9.68485 8.79214 8.79214 9.68479 7.69486 9.68479H2.93281C1.8356 9.68485 0.942944 8.79214 0.942944 7.69486V2.93287C0.942944 1.83566 1.8356 0.942944 2.93281 0.942944H7.6948C8.79207 0.942944 9.68479 1.83566 9.68479 2.93287V7.69486H9.68485Z" fill="#F2C94C"/>
<path d="M5.31388 2.57547C3.80385 2.57547 2.57538 3.80394 2.57538 5.31397C2.57538 6.82394 3.80385 8.05234 5.31388 8.05234C6.82391 8.05234 8.05237 6.82394 8.05237 5.31397C8.05237 3.80394 6.82391 2.57547 5.31388 2.57547ZM5.31388 7.10933C4.32385 7.10933 3.51832 6.30393 3.51832 5.31391C3.51832 4.32381 4.32379 3.51835 5.31388 3.51835C6.30397 3.51835 7.10943 4.32381 7.10943 5.31391C7.10943 6.30393 6.30391 7.10933 5.31388 7.10933Z" fill="#F2C94C"/>
<path d="M8.1672 1.77594C7.98553 1.77594 7.80706 1.84949 7.67876 1.97836C7.54982 2.1066 7.47571 2.28513 7.47571 2.46743C7.47571 2.64917 7.54989 2.82764 7.67876 2.95651C7.807 3.08475 7.98553 3.15892 8.1672 3.15892C8.3495 3.15892 8.52741 3.08475 8.65627 2.95651C8.78514 2.82764 8.85869 2.64911 8.85869 2.46743C8.85869 2.28513 8.78514 2.1066 8.65627 1.97836C8.52803 1.84949 8.3495 1.77594 8.1672 1.77594Z" fill="#F2C94C"/>
</svg>
