<svg width="52" height="53" viewBox="0 0 52 53" fill="none" xmlns="http://www.w3.org/2000/svg">
<path d="M2.60008 53.0001H6.93355C7.66894 52.9978 8.36859 52.6826 8.85761 52.1334H30.5943C31.8659 52.1338 33.1131 51.7839 34.1989 51.122L50.4416 41.2342C51.8522 40.3761 52.3932 38.5953 51.6982 37.0975C51.0033 35.5997 49.2941 34.8629 47.728 35.3859L46.4721 35.8045C46.7547 34.9345 46.8545 34.0153 46.7651 33.1049C45.8732 26.0849 42.9161 20.2349 39.8064 13.8519C42.2435 14.3467 47.3033 15.7334 46.8188 18.1601C46.746 18.4683 46.8472 18.7918 47.0828 19.0036C47.3183 19.2154 47.6506 19.2818 47.9494 19.1769C48.2483 19.072 48.4661 18.8124 48.5175 18.4998C49.1502 15.3391 45.5006 13.5919 42.4169 12.6931C45.5014 11.8048 49.1502 10.0585 48.5175 6.89341C48.4102 6.43886 47.962 6.15109 47.504 6.24268C47.0461 6.33428 46.743 6.77229 46.8188 7.23314C47.3388 9.81668 41.5623 11.264 38.9414 11.706C38.2708 8.98417 38.8356 6.1051 40.485 3.83841C40.8805 3.34336 40.978 2.67335 40.7399 2.08614C40.5018 1.49892 39.9653 1.08597 39.3366 1.00614C37.1534 0.759143 33.7725 1.82514 31.3232 2.76374C30.1285 3.22181 28.8067 3.22181 27.612 2.76374C25.1619 1.82514 21.7818 0.756543 19.5986 1.00614C18.9686 1.08521 18.4308 1.49874 18.1925 2.08715C17.9542 2.67556 18.0528 3.34682 18.4502 3.84188C20.8007 6.82841 20.3413 10.4467 19.8386 12.3872C16.7185 18.8482 13.647 24.4833 12.444 31.4435C11.4258 31.3186 10.3987 31.2817 9.37416 31.3334C9.0082 30.2983 8.03147 29.6046 6.93355 29.6001H2.60008C1.1641 29.6001 0 30.7641 0 32.2001V50.4001C0 51.836 1.1641 53.0001 2.60008 53.0001ZM19.7927 2.72821C21.2262 2.56614 23.7847 3.15374 26.9923 4.38181C28.5859 4.99327 30.3493 4.99327 31.9429 4.38181C35.1496 3.15201 37.7116 2.56701 39.1226 2.76981C37.1646 5.38598 36.4664 8.73516 37.2158 11.9157C36.5693 11.9738 35.9158 12.0024 35.271 12.0466C35.0214 10.9451 34.7588 8.69088 35.4287 7.48708C35.6613 7.06874 35.5108 6.54103 35.0924 6.30841C34.6741 6.07579 34.1464 6.22634 33.9137 6.64468C33.008 8.27141 33.2386 10.7024 33.5376 12.1627C32.4724 12.213 31.4055 12.2321 30.3378 12.2433V7.93341C30.3378 7.45476 29.9497 7.06674 29.4711 7.06674C28.9924 7.06674 28.6044 7.45476 28.6044 7.93341V12.2442C27.5375 12.2329 26.4706 12.2139 25.4045 12.1636C25.7035 10.7033 25.9341 8.27141 25.0284 6.64554C24.8779 6.37493 24.5945 6.20515 24.2849 6.20016C23.9752 6.19517 23.6865 6.35573 23.5274 6.62136C23.3682 6.88699 23.3629 7.21733 23.5134 7.48794C24.1842 8.69261 23.9199 10.9546 23.6729 12.0466C23.0246 12.0033 22.3728 11.9738 21.7271 11.9157C22.4727 8.71786 21.7644 5.354 19.7927 2.72821ZM21.1794 13.6005C26.6949 14.1279 32.2481 14.1279 37.7636 13.6005C41.0146 20.3068 44.1425 26.162 45.0508 33.3033C45.1378 34.4444 44.8542 35.583 44.2421 36.5499C30.2632 41.2082 31.6274 40.8667 30.3681 40.8667C31.4497 37.8646 28.6858 34.8001 25.5085 34.8001H20.974C19.3748 34.7983 17.8236 34.2541 16.5738 33.2565C15.837 32.6702 15.011 32.2058 14.1271 31.8811C15.2425 25.2667 18.1616 19.8067 21.1759 13.6005H21.1794ZM15.4922 34.6103C17.0495 35.8526 18.9818 36.5305 20.974 36.5334H25.5068C27.8061 36.5334 29.8021 39.0233 28.4284 40.8667H23.1589C21.4484 40.8651 19.7759 41.3719 18.354 42.3227L17.7187 42.7457C17.455 42.9148 17.3032 43.2131 17.3214 43.5258C17.3397 43.8385 17.5254 44.117 17.8069 44.2542C18.0885 44.3915 18.4223 44.3661 18.6799 44.1878C19.9554 43.1751 21.5321 42.6164 23.1607 42.6001C31.6491 42.6001 31.344 42.6746 32.2367 42.3782L48.2801 37.03C49.0091 36.7872 49.8043 37.1303 50.1278 37.8273C50.4512 38.5244 50.1999 39.3532 49.5437 39.7531L33.2975 49.6417C32.4832 50.138 31.5479 50.4003 30.5943 50.4001H9.53363V33.0667C11.5028 33.0667 13.3731 32.9151 15.4922 34.6103ZM1.73339 32.2001C1.73339 31.7214 2.12142 31.3334 2.60008 31.3334H6.93355C7.41221 31.3334 7.80025 31.7214 7.80025 32.2001V50.4001C7.80025 50.8787 7.41221 51.2667 6.93355 51.2667H2.60008C2.12142 51.2667 1.73339 50.8787 1.73339 50.4001V32.2001Z" fill="#ECC910"/>
<path d="M25.1341 28.7334C25.1341 28.2548 24.7461 27.8667 24.2674 27.8667C23.7888 27.8667 23.4007 28.2548 23.4007 28.7334C23.4007 30.4936 24.8031 31.9739 26.8675 32.6577V33.9334C26.8675 34.412 27.2556 34.8001 27.7342 34.8001C28.2129 34.8001 28.6009 34.412 28.6009 33.9334V33.0199C29.177 33.0823 29.7582 33.0823 30.3343 33.0199V33.9334C30.3343 34.412 30.7223 34.8001 31.201 34.8001C31.6796 34.8001 32.0677 34.412 32.0677 33.9334V32.6577C36.6924 31.1254 36.688 26.3405 32.0677 24.8091V19.7487C32.991 20.0437 33.6643 20.8405 33.8011 21.8001C33.8011 22.2787 34.1891 22.6667 34.6678 22.6667C35.1464 22.6667 35.5345 22.2787 35.5345 21.8001C35.5345 20.0399 34.1321 18.5596 32.0677 17.8758V16.6001C32.0677 16.1214 31.6796 15.7334 31.201 15.7334C30.7223 15.7334 30.3343 16.1214 30.3343 16.6001V17.5135C29.7582 17.4511 29.177 17.4511 28.6009 17.5135V16.6001C28.6009 16.1214 28.2129 15.7334 27.7342 15.7334C27.2556 15.7334 26.8675 16.1214 26.8675 16.6001V17.8758C22.2428 19.4081 22.2472 24.1929 26.8675 25.7243V30.7848C25.9442 30.4898 25.2709 29.6929 25.1341 28.7334ZM32.0677 30.7848V26.682C34.3679 27.7445 34.387 29.7136 32.0677 30.7848ZM30.3343 19.2581V24.4495C29.5413 24.3715 29.2943 24.4365 28.6009 24.3472V19.2555C29.1763 19.1814 29.7589 19.1814 30.3343 19.2555V19.2581ZM26.8675 19.7513V23.8541C24.5673 22.7889 24.5482 20.8199 26.8675 19.7487V19.7513ZM28.6009 26.0892C29.3939 26.1672 29.6409 26.1022 30.3343 26.1915V31.2805C29.7589 31.3546 29.1763 31.3546 28.6009 31.2805V26.0892Z" fill="#ECC910"/>
</svg>
