<svg width="51" height="52" viewBox="0 0 51 52" fill="none" xmlns="http://www.w3.org/2000/svg">
<path d="M12.0265 28.2751C10.7933 28.2751 9.79008 29.3133 9.79008 30.5895C9.79008 31.8656 10.7933 32.9038 12.0265 32.9038C13.2595 32.9038 14.2627 31.8656 14.2627 30.5895C14.2627 29.3133 13.2594 28.2751 12.0265 28.2751ZM12.0265 31.3776C11.6066 31.3776 11.265 31.024 11.265 30.5897C11.265 30.1553 11.6066 29.8017 12.0265 29.8017C12.4463 29.8017 12.7878 30.1553 12.7878 30.5897C12.7878 31.024 12.4462 31.3776 12.0265 31.3776Z" fill="#ECC910"/>
<path d="M32.2591 42.9928C32.1605 42.678 31.8773 42.4653 31.5578 42.4653H27.1773L25.8237 38.1536C25.7261 37.8428 25.4381 37.6262 25.1223 37.6262C24.8065 37.6262 24.5186 37.8426 24.4209 38.1536L23.0673 42.4653H18.6868C18.3674 42.4653 18.0842 42.6781 17.9855 42.9927C17.8868 43.3071 17.9949 43.6517 18.2534 43.8459L21.7972 46.5107L20.4436 50.8223C20.349 51.1231 20.4484 51.4618 20.6884 51.6575C20.9448 51.8666 21.3142 51.8742 21.5784 51.6756L25.1222 49.0108L28.666 51.6756C28.9431 51.884 29.3327 51.864 29.5889 51.6288C29.806 51.4295 29.8905 51.1081 29.8007 50.8224L28.4471 46.5108L31.9909 43.846C32.2497 43.6518 32.3578 43.3072 32.2591 42.9928ZM27.147 45.6016C26.8885 45.7959 26.7804 46.1404 26.8791 46.4548L27.6969 49.0599L25.5557 47.45C25.3001 47.2577 24.9443 47.2577 24.6888 47.45L22.5475 49.0599L23.3654 46.4548C23.4641 46.1404 23.356 45.7958 23.0975 45.6016L20.9563 43.9916H23.603C23.9224 43.9916 24.2056 43.7788 24.3043 43.4642L25.1222 40.8592L25.94 43.4642C26.0388 43.7788 26.322 43.9916 26.6414 43.9916H29.2881L27.147 45.6016Z" fill="#ECC910"/>
<path d="M50.2085 42.9927C50.1098 42.6781 49.8266 42.4653 49.5072 42.4653H45.1268L43.7731 38.1536C43.6756 37.8428 43.3875 37.6262 43.0717 37.6262C42.7559 37.6262 42.468 37.8426 42.3704 38.1536L41.0167 42.4653H36.6363C36.3169 42.4653 36.0336 42.6781 35.9349 42.9927C35.8362 43.3071 35.9443 43.6517 36.2028 43.8459L39.7467 46.5107L38.393 50.8223C38.2985 51.1231 38.3978 51.4618 38.6378 51.6575C38.8943 51.8666 39.2636 51.8742 39.5278 51.6756L43.0716 49.0108L46.6155 51.6756C46.8927 51.884 47.2822 51.864 47.5384 51.6289C47.7556 51.4295 47.8401 51.1081 47.7503 50.8224L46.3966 46.5108L49.9404 43.846C50.1992 43.6517 50.3074 43.3071 50.2085 42.9927ZM45.0964 45.6017C44.838 45.796 44.7298 46.1405 44.8285 46.455L45.6463 49.06L43.5052 47.4501C43.2466 47.2557 42.8967 47.2556 42.6383 47.4501L40.497 49.06L41.3148 46.455C41.4136 46.1405 41.3054 45.7959 41.0469 45.6017L38.9057 43.9918H41.5525C41.8719 43.9918 42.1552 43.7789 42.2539 43.4643L43.0717 40.8593L43.8896 43.4643C43.9883 43.7789 44.2715 43.9918 44.591 43.9918H47.2376L45.0964 45.6017Z" fill="#ECC910"/>
<path d="M14.3099 42.9928C14.211 42.678 13.9278 42.4653 13.6084 42.4653H9.22799L7.87432 38.1536C7.7756 37.8391 7.49238 37.6262 7.17296 37.6262C6.85353 37.6262 6.57031 37.8391 6.47159 38.1536L5.11793 42.4653H0.737509C0.418082 42.4653 0.134866 42.6781 0.0361433 42.9927C-0.0625797 43.3071 0.0455642 43.6517 0.30405 43.8459L3.84787 46.5107L2.49421 50.8223C2.39549 51.1368 2.50363 51.4814 2.76212 51.6756C3.0205 51.8699 3.37055 51.8699 3.62903 51.6756L7.17286 49.0108L10.7167 51.6756C10.9939 51.884 11.3834 51.864 11.6395 51.6288C11.8567 51.4295 11.9412 51.1081 11.8514 50.8224L10.4977 46.5108L14.0416 43.846C14.3004 43.6518 14.4086 43.3072 14.3099 42.9928ZM9.19766 45.6016C8.93918 45.7959 8.83103 46.1404 8.92976 46.4548L9.74761 49.0599L7.60632 47.45C7.35078 47.2577 6.99494 47.2577 6.7394 47.45L4.59831 49.0598L5.41606 46.4547C5.51478 46.1403 5.40664 45.7957 5.14815 45.6015L3.00696 43.9915H5.65364C5.97307 43.9915 6.25628 43.7787 6.35501 43.4641L7.17286 40.8591L7.99071 43.4641C8.08943 43.7787 8.37265 43.9915 8.69207 43.9915H11.3388L9.19766 45.6016Z" fill="#ECC910"/>
<path d="M44.2749 19.2053C45.0367 18.5709 45.5249 17.5983 45.5249 16.51C45.5249 14.603 44.0258 13.0515 42.1832 13.0515H30.3211C30.6898 12.2195 31.1154 10.9521 31.3587 9.19032C31.9238 5.09644 31.0699 2.92341 30.2541 1.82135C29.5636 0.888604 28.636 0.324526 27.5716 0.19026C26.6735 0.0761039 25.8534 0.814362 25.8294 1.74813C25.6914 3.21611 25.1863 7.24337 24.4628 8.74101C22.6043 12.588 18.1731 14.8816 16.8045 15.5161C16.3256 15.0902 15.7037 14.8319 15.0242 14.8319H9.02876C7.52024 14.8319 6.29298 16.102 6.29298 17.6633V33.175C6.29298 34.7363 7.52024 36.0064 9.02876 36.0064H15.024C15.8311 36.0064 16.5576 35.6425 17.0587 35.0652C17.837 35.5737 19.0931 36.1402 20.8278 36.1402H40.0997C41.9424 36.1402 43.4414 34.5888 43.4414 32.6818C43.4414 31.8077 43.1264 31.0082 42.6076 30.3986C43.7174 29.8354 44.483 28.654 44.483 27.2911C44.483 26.4169 44.168 25.6175 43.6492 25.0079C44.7589 24.4448 45.5246 23.2633 45.5246 21.9005C45.5249 20.8123 45.0366 19.8397 44.2749 19.2053ZM15.024 34.4799H9.02876C8.33348 34.4799 7.76784 33.8945 7.76784 33.1749V17.6632C7.76784 16.9436 8.33348 16.3582 9.02876 16.3582H15.024C15.3761 16.3582 15.6945 16.5087 15.9235 16.7504V33.7703C15.9235 33.8616 15.9395 33.9512 15.9697 34.0352C15.7384 34.3071 15.4007 34.4799 15.024 34.4799ZM39.0848 19.9684H42.1835C43.2129 19.9684 44.0503 20.8353 44.0503 21.9005C44.0503 22.9656 43.2128 23.8325 42.1835 23.8325H39.0848C38.6776 23.8325 38.3473 24.1741 38.3473 24.5957C38.3473 25.0173 38.6776 25.359 39.0848 25.359H41.1417C42.1711 25.359 43.0085 26.2258 43.0085 27.291C43.0085 28.3562 42.1711 29.223 41.1417 29.223H38.5195C38.1122 29.223 37.782 29.5647 37.782 29.9863C37.782 30.4078 38.1122 30.7495 38.5195 30.7495H40.0999C41.1293 30.7495 41.9667 31.6163 41.9667 32.6816C41.9667 33.7469 41.1293 34.6136 40.0999 34.6136H20.828C19.306 34.6136 18.2741 34.0859 17.7138 33.6897C17.7437 33.5226 17.7601 33.3506 17.7601 33.1747V17.6632C17.7601 17.3648 17.7149 17.0773 17.6319 16.8071C19.3598 15.9864 23.7836 13.5597 25.7819 9.42361C26.7814 7.35489 27.2798 2.08684 27.3005 1.8636C27.3026 1.83943 27.3038 1.81496 27.3038 1.79068C27.3038 1.76468 27.3134 1.74254 27.3324 1.72528C27.3589 1.70121 27.3844 1.70425 27.3929 1.70537C27.8545 1.76367 28.5225 1.99218 29.0834 2.74963C29.7272 3.61942 30.3913 5.40539 29.8987 8.9745C29.4811 11.9997 28.491 13.3232 28.4849 13.3314C28.0983 13.8204 28.4464 14.578 29.0555 14.578H42.1834C43.2128 14.578 44.0502 15.4448 44.0502 16.5101C44.0502 17.5755 43.2127 18.4422 42.1834 18.4422H39.0847C38.6775 18.4422 38.3472 18.7838 38.3472 19.2054C38.3472 19.627 38.6775 19.9684 39.0848 19.9684Z" fill="#ECC910"/>
</svg>
