<svg width="23" height="24" viewBox="0 0 23 24" fill="none" xmlns="http://www.w3.org/2000/svg">
<path d="M20.5212 0.347857L7.56376 0.318848C6.32274 0.318848 5.31323 1.42119 5.31323 2.77633V4.89978L2.25053 4.90683C1.00951 4.90683 0 6.00917 0 7.36431V16.1254C0 17.4806 1.00951 18.5825 2.25053 18.5825H4.5542V22.7266C4.5542 22.8978 4.65059 23.0515 4.79709 23.1133C4.84149 23.1319 4.88779 23.1411 4.93371 23.1411C5.03846 23.1411 5.14131 23.0934 5.21455 23.0055L8.89738 18.5817L15.2072 18.5535C16.4482 18.5535 17.4578 17.4512 17.4578 16.0964V16.0496L19.454 18.4474C19.5273 18.5353 19.6301 18.5829 19.7348 18.5829C19.7808 18.5829 19.8271 18.5738 19.8715 18.5552C20.018 18.4934 20.1144 18.3397 20.1144 18.1685V14.0244H20.5204C21.7615 14.0244 22.771 12.922 22.771 11.5673V2.80533C22.771 1.45061 21.7618 0.348271 20.5212 0.347857ZM16.6987 16.096C16.6987 16.9941 16.0296 17.7243 15.2057 17.7243L8.72736 17.7533C8.62109 17.7537 8.51938 17.803 8.44803 17.8888L5.31323 21.6546V18.1677C5.31323 17.9389 5.14358 17.7533 4.93371 17.7533H2.25053C1.42812 17.7533 0.759033 17.0226 0.759033 16.125V7.36389C0.759033 6.46586 1.42812 5.73524 2.25129 5.73524L5.69275 5.72737C5.69312 5.72737 5.69312 5.72737 5.6935 5.72737L15.2072 5.70582C16.0296 5.70582 16.6987 6.43643 16.6987 7.33447V14.9767V16.096ZM22.0119 11.5665C22.0119 12.4645 21.3429 13.1947 20.5204 13.1947H19.7348C19.525 13.1947 19.3553 13.3804 19.3553 13.6091V17.096L17.4578 14.8167V7.33488C17.4578 5.97975 16.4482 4.87741 15.2065 4.87741L6.07226 4.89771V2.77591C6.07226 1.87787 6.74135 1.14726 7.563 1.14726L20.5201 1.17627C20.5204 1.17627 20.5204 1.17627 20.5208 1.17627C21.3432 1.17627 22.0123 1.90688 22.0123 2.80492V11.5665H22.0119Z" fill="white"/>
</svg>
