<svg width="148" height="27" viewBox="0 0 148 27" fill="none" xmlns="http://www.w3.org/2000/svg">
<path d="M60.4675 13.6822C60.4675 13.6822 62.9577 13.4973 62.9577 10.5763C62.9577 7.65563 60.9202 6.23071 58.339 6.23071H53.5882H53.4487H49.8461V22.5523H53.4487H53.5882H58.339C58.339 22.5523 63.5236 22.7163 63.5236 17.735C63.5239 17.735 63.75 13.6822 60.4675 13.6822ZM53.5882 9.13192H57.7278H58.3393C58.3393 9.13192 59.4939 9.13192 59.4939 10.8299C59.4939 12.5279 58.8146 12.774 58.0448 12.774H53.5882V9.13192ZM58.1201 19.6519H53.5882V15.2898H58.339C58.339 15.2898 60.0598 15.2678 60.0598 17.5314C60.0598 19.419 58.8014 19.633 58.1201 19.6519Z" fill="#F2C94C"/>
<path d="M73.6618 7.19214H66.9276V9.20219H73.6618V7.19214Z" fill="#F2C94C"/>
<path d="M70.4386 10.3835C64.1621 10.3835 64.1676 16.6541 64.1676 16.6541C64.1676 16.6541 63.7374 22.8935 70.4389 22.8935C70.4389 22.8935 76.024 23.2128 76.024 18.5529H73.1517C73.1517 18.5529 73.2475 20.3085 70.5348 20.3085C70.5348 20.3085 67.6627 20.5005 67.6627 17.468H76.1196C76.1196 17.468 77.0448 10.3835 70.4386 10.3835ZM72.9918 15.2896H67.6303C67.6303 15.2896 67.9811 12.7738 70.5024 12.7738C73.0239 12.7735 72.9918 15.2896 72.9918 15.2896Z" fill="#F2C94C"/>
<path d="M111.52 4.15381H101.63C98.271 4.15381 95.5385 6.88646 95.5385 10.2452V20.1354C95.5385 23.4943 98.271 26.2268 101.63 26.2268H111.52C114.879 26.2268 117.611 23.4941 117.611 20.1354V10.2452C117.612 6.88646 114.879 4.15381 111.52 4.15381ZM115.653 20.1354C115.653 22.4144 113.799 24.2684 111.52 24.2684H101.63C99.3508 24.2685 97.4969 22.4144 97.4969 20.1354V10.2452C97.4969 7.96633 99.3508 6.11223 101.63 6.11223H111.52C113.799 6.11223 115.653 7.96633 115.653 10.2452V20.1354H115.653Z" fill="#F2C94C"/>
<path d="M106.575 9.50293C103.439 9.50293 100.887 12.0544 100.887 15.1906C100.887 18.3267 103.439 20.878 106.575 20.878C109.711 20.878 112.263 18.3267 112.263 15.1906C112.263 12.0544 109.711 9.50293 106.575 9.50293ZM106.575 18.9194C104.519 18.9194 102.846 17.2467 102.846 15.1904C102.846 13.1341 104.519 11.4612 106.575 11.4612C108.631 11.4612 110.304 13.1341 110.304 15.1904C110.304 17.2467 108.631 18.9194 106.575 18.9194Z" fill="#F2C94C"/>
<path d="M112.501 7.84229C112.124 7.84229 111.753 7.99504 111.487 8.26269C111.219 8.52904 111.065 8.89983 111.065 9.27846C111.065 9.65591 111.219 10.0266 111.487 10.2942C111.753 10.5606 112.124 10.7146 112.501 10.7146C112.88 10.7146 113.249 10.5606 113.517 10.2942C113.785 10.0266 113.937 9.65578 113.937 9.27846C113.937 8.89983 113.785 8.52904 113.517 8.26269C113.251 7.99504 112.88 7.84229 112.501 7.84229Z" fill="#F2C94C"/>
<path d="M29.5561 21.5411C29.5201 21.4635 29.4865 21.3992 29.4554 21.3477C28.9398 20.4192 27.9547 19.2795 26.5005 17.9284L26.4698 17.8975L26.4544 17.8823L26.4388 17.8667H26.4232C25.7632 17.2376 25.3453 16.8146 25.1703 16.598C24.85 16.1854 24.7783 15.7678 24.9533 15.3446C25.0769 15.0249 25.5414 14.3498 26.3457 13.3182C26.7687 12.7715 27.1037 12.3334 27.3512 12.0033C29.1356 9.631 29.9092 8.11508 29.6719 7.45493L29.5797 7.30066C29.5177 7.20778 29.3579 7.12282 29.1003 7.04533C28.8422 6.96801 28.5123 6.95522 28.1099 7.00675L23.6545 7.03753C23.5823 7.01195 23.4793 7.01434 23.345 7.04533C23.2109 7.07633 23.1438 7.09188 23.1438 7.09188L23.0662 7.13062L23.0047 7.17717C22.9531 7.20794 22.8964 7.26208 22.8344 7.33946C22.7728 7.41656 22.7213 7.50705 22.6801 7.61017C22.195 8.85814 21.6435 10.0184 21.0246 11.091C20.6429 11.7306 20.2924 12.2848 19.9724 12.7541C19.6527 13.2233 19.3846 13.5689 19.1681 13.7905C18.9514 14.0123 18.7558 14.19 18.5801 14.3242C18.4047 14.4585 18.2708 14.5152 18.1781 14.4944C18.0852 14.4737 17.9977 14.4531 17.9148 14.4325C17.7705 14.3396 17.6544 14.2133 17.5669 14.0535C17.479 13.8936 17.4199 13.6924 17.3889 13.4501C17.3581 13.2075 17.3399 12.9989 17.3347 12.8235C17.3299 12.6483 17.3321 12.4005 17.3426 12.0808C17.3533 11.761 17.3581 11.5445 17.3581 11.4311C17.3581 11.0391 17.3658 10.6137 17.3811 10.1547C17.3967 9.69575 17.4093 9.33211 17.4199 9.06421C17.4304 8.79604 17.4353 8.51232 17.4353 8.21321C17.4353 7.9141 17.4171 7.67953 17.3811 7.50928C17.3456 7.33924 17.291 7.17419 17.2191 7.01417C17.1468 6.85432 17.0409 6.73067 16.9019 6.64289C16.7627 6.55522 16.5897 6.48564 16.3837 6.43395C15.837 6.31024 15.1409 6.24332 14.295 6.23291C12.3767 6.21232 11.1441 6.33619 10.5975 6.60436C10.3809 6.71767 10.1849 6.87248 10.0097 7.06831C9.824 7.29529 9.7981 7.41916 9.93216 7.43954C10.5511 7.53225 10.9892 7.75404 11.2471 8.10468L11.34 8.29048C11.4123 8.42454 11.4845 8.66188 11.5567 9.00217C11.6288 9.34246 11.6754 9.71889 11.6959 10.1312C11.7474 10.8843 11.7474 11.5289 11.6959 12.0651C11.6442 12.6016 11.5955 13.0192 11.5489 13.3183C11.5024 13.6174 11.4328 13.8598 11.34 14.0454C11.2471 14.231 11.1853 14.3445 11.1543 14.3856C11.1233 14.4268 11.0975 14.4528 11.0771 14.463C10.943 14.5143 10.8036 14.5405 10.6593 14.5405C10.5148 14.5405 10.3395 14.4682 10.1333 14.3238C9.92712 14.1793 9.71314 13.9809 9.49135 13.7281C9.26957 13.4754 9.01944 13.1221 8.74087 12.6684C8.46251 12.2146 8.1737 11.6783 7.87459 11.0595L7.62712 10.6107C7.47242 10.322 7.26109 9.90166 6.99292 9.34999C6.72459 8.7981 6.48742 8.26426 6.28124 7.74856C6.19882 7.53198 6.07501 7.36709 5.91001 7.25362L5.83258 7.20708C5.7811 7.1659 5.69846 7.12217 5.58511 7.07557C5.47158 7.02902 5.35313 6.99564 5.22926 6.97511L0.990312 7.00588C0.557145 7.00588 0.263238 7.10402 0.108481 7.30001L0.0465462 7.39272C0.0156057 7.44436 0 7.52683 0 7.64035C0 7.75382 0.0309405 7.89308 0.0928756 8.05797C0.711685 9.51233 1.38463 10.9149 2.1117 12.266C2.83877 13.6171 3.47059 14.7055 4.00676 15.5301C4.54305 16.3553 5.08968 17.1341 5.64666 17.8661C6.20364 18.5985 6.57233 19.0678 6.75272 19.274C6.93332 19.4805 7.07518 19.635 7.1783 19.7381L7.56513 20.1093C7.81266 20.3569 8.17614 20.6534 8.65574 20.9988C9.13546 21.3445 9.66654 21.6848 10.2493 22.0202C10.8321 22.3552 11.5101 22.6285 12.2837 22.8399C13.0573 23.0515 13.8101 23.1364 14.5424 23.0954H16.3216C16.6824 23.0643 16.9558 22.9508 17.1416 22.755L17.2032 22.6774C17.2446 22.6159 17.2833 22.5202 17.3191 22.3915C17.3553 22.2626 17.3733 22.1206 17.3733 21.9661C17.3627 21.5227 17.3965 21.1231 17.4736 20.7673C17.5507 20.4116 17.6386 20.1434 17.7369 19.9628C17.8351 19.7824 17.946 19.6301 18.0694 19.5067C18.193 19.383 18.2812 19.308 18.3328 19.2823C18.3842 19.2563 18.4252 19.2387 18.4562 19.2281C18.7037 19.1457 18.995 19.2255 19.3305 19.4681C19.6658 19.7105 19.9802 20.0098 20.2743 20.3654C20.5683 20.7214 20.9215 21.1209 21.334 21.5643C21.7467 22.0078 22.1076 22.3376 22.4169 22.5545L22.7262 22.7401C22.9327 22.864 23.2009 22.9774 23.531 23.0806C23.8605 23.1836 24.1492 23.2094 24.3971 23.1579L28.3574 23.0961C28.7492 23.0961 29.054 23.0313 29.2702 22.9026C29.4868 22.7737 29.6155 22.6316 29.657 22.4771C29.6984 22.3225 29.7006 22.147 29.6649 21.9509C29.6282 21.7552 29.592 21.6184 29.5561 21.5411Z" fill="#F2C94C"/>
<path d="M146.914 0.0056178L143.427 0C139.509 0 136.978 2.60806 136.978 6.64474V9.7084H133.471C133.168 9.7084 132.923 9.95503 132.923 10.2592V14.6981C132.923 15.0023 133.169 15.2487 133.471 15.2487H136.978V26.4495C136.978 26.7537 137.223 27 137.526 27H142.1C142.403 27 142.649 26.7534 142.649 26.4495V15.2487H146.748C147.051 15.2487 147.297 15.0023 147.297 14.6981L147.298 10.2592C147.298 10.1132 147.24 9.97328 147.138 9.86992C147.035 9.76655 146.895 9.7084 146.75 9.7084H142.649V7.11129C142.649 5.86302 142.945 5.22933 144.564 5.22933L146.914 5.22849C147.216 5.22849 147.462 4.98187 147.462 4.67794V0.556162C147.462 0.25252 147.216 0.00617958 146.914 0.0056178Z" fill="#F2C94C"/>
</svg>
