<svg width="52" height="52" viewBox="0 0 52 52" fill="none" xmlns="http://www.w3.org/2000/svg">
<path d="M35.7644 26.068H29.378C29.0526 24.817 28.0734 23.8379 26.8224 23.5124V14.4435C26.8224 13.949 26.4218 13.5493 25.9282 13.5493C25.4346 13.5493 25.034 13.949 25.034 14.4435V23.5124C23.496 23.9121 22.3515 25.2999 22.3515 26.9622C22.3515 28.9348 23.9557 30.539 25.9282 30.539C27.5897 30.539 28.9783 29.3944 29.378 27.8564H35.7644C36.258 27.8564 36.6586 27.4567 36.6586 26.9622C36.6586 26.4677 36.2589 26.068 35.7644 26.068ZM25.9282 28.7506C24.9419 28.7506 24.1399 27.9485 24.1399 26.9622C24.1399 25.9759 24.9419 25.1738 25.9282 25.1738C26.9145 25.1738 27.7166 25.9759 27.7166 26.9622C27.7166 27.9485 26.9145 28.7506 25.9282 28.7506Z" fill="#ECC910"/>
<path d="M44.8064 8.73045L48.4691 12.3931C48.6372 12.5612 48.8643 12.6551 49.1013 12.6551C49.3382 12.6551 49.5662 12.5612 49.7334 12.3931C52.5654 9.56205 52.5654 4.95428 49.7334 2.12326C46.9024 -0.707754 42.2947 -0.707754 39.4636 2.12326C39.2955 2.29137 39.2016 2.5176 39.2016 2.75546C39.2016 2.99331 39.2955 3.22044 39.4636 3.38765L43.5421 7.46606L42.0228 8.9853C37.7486 5.15458 32.1071 2.81894 25.9291 2.81894C19.7512 2.81894 14.1097 5.15458 9.83545 8.9853L8.31532 7.46606L12.3937 3.38765C12.5618 3.21954 12.6557 2.99331 12.6557 2.75546C12.6557 2.5176 12.5618 2.29048 12.3937 2.12326C9.56272 -0.707754 4.95495 -0.707754 2.12393 2.12326C-0.707977 4.95428 -0.707977 9.56205 2.12393 12.3931C2.29204 12.5612 2.51917 12.6551 2.75613 12.6551C2.99309 12.6551 3.22111 12.5612 3.38832 12.3931L7.05093 8.73045L8.5496 10.2291C4.36567 14.5722 1.78503 20.4703 1.78503 26.9622C1.78503 35.8129 6.57522 43.562 13.6966 47.7656L10.989 50.4732C10.6393 50.8228 10.6393 51.3879 10.989 51.7376C11.1633 51.9119 11.3922 51.9996 11.6212 51.9996C11.8501 51.9996 12.079 51.9119 12.2533 51.7376L15.3383 48.6526C18.5377 50.221 22.1315 51.1054 25.9282 51.1054C29.725 51.1054 33.3187 50.221 36.5182 48.6526L39.6031 51.7376C39.7775 51.9119 40.0064 51.9996 40.2353 51.9996C40.4642 51.9996 40.6932 51.9119 40.8675 51.7376C41.2172 51.3879 41.2172 50.8228 40.8675 50.4732L38.1599 47.7656C45.2813 43.562 50.0715 35.8129 50.0715 26.9622C50.0715 20.4703 47.4908 14.5722 43.3069 10.2291L44.8064 8.73045ZM48.4682 3.38765C50.3871 5.30659 50.5802 8.3075 49.0485 10.4455L41.4112 2.80732C43.5474 1.27557 46.5492 1.46782 48.4682 3.38765ZM2.80799 10.4446C1.27624 8.3075 1.46938 5.30659 3.38832 3.38765C5.30726 1.46871 8.30906 1.27646 10.4453 2.80732L2.80799 10.4446ZM25.9282 49.317C13.6018 49.317 3.57342 39.2886 3.57342 26.9622C3.57342 14.6357 13.6018 4.60733 25.9282 4.60733C38.2547 4.60733 48.2831 14.6357 48.2831 26.9622C48.2831 39.2886 38.2556 49.317 25.9282 49.317Z" fill="#ECC910"/>
<path d="M43.7066 16.6404C41.9093 13.5564 39.334 10.982 36.2508 9.18466C36.2365 9.17482 36.2276 9.15962 36.2124 9.15068C36.1963 9.14174 36.1793 9.14174 36.1632 9.13369C33.1471 7.39538 29.6534 6.39478 25.9291 6.39478C22.2048 6.39478 18.7112 7.39448 15.6951 9.13369C15.679 9.14174 15.6611 9.14084 15.6459 9.15068C15.6307 9.15962 15.6227 9.17482 15.6075 9.18466C12.5234 10.982 9.94901 13.5564 8.15169 16.6404C8.14185 16.6556 8.12665 16.6637 8.11771 16.6789C8.10876 16.6941 8.10876 16.712 8.10161 16.7281C6.3633 19.7451 5.3627 23.2378 5.3627 26.9621C5.3627 30.6864 6.3633 34.18 8.10161 37.1961C8.10966 37.2122 8.10876 37.2292 8.11771 37.2453C8.13022 37.2677 8.149 37.2838 8.16331 37.3043C9.96064 40.3786 12.5305 42.9458 15.6075 44.7396C15.6218 44.7494 15.6307 44.7646 15.6459 44.7735C15.6692 44.7869 15.6942 44.7923 15.7175 44.803C18.7291 46.5333 22.2138 47.5285 25.9291 47.5285C29.6445 47.5285 33.1292 46.5333 36.1408 44.803C36.1641 44.7923 36.1891 44.7869 36.2124 44.7735C36.2276 44.7646 36.2356 44.7494 36.2508 44.7396C39.3277 42.9458 41.8976 40.3795 43.695 37.3043C43.7093 37.2838 43.728 37.2677 43.7406 37.2453C43.7495 37.2301 43.7495 37.2122 43.7567 37.1961C45.495 34.1791 46.4956 30.6864 46.4956 26.9621C46.4956 23.2378 45.495 19.7442 43.7567 16.7281C43.7486 16.712 43.7495 16.695 43.7406 16.6789C43.7307 16.6637 43.7155 16.6547 43.7066 16.6404ZM36.0711 42.741L35.6445 42.0024C35.3968 41.575 34.8505 41.4275 34.4231 41.6752C33.9956 41.922 33.849 42.4692 34.0958 42.8966L34.5241 43.6379C32.1965 44.8424 29.5882 45.5631 26.8233 45.6946V44.846C26.8233 44.3515 26.4227 43.9518 25.9291 43.9518C25.4355 43.9518 25.0349 44.3515 25.0349 44.846V45.6946C22.2701 45.564 19.6617 44.8424 17.3342 43.6379L17.7625 42.8966C18.0093 42.4683 17.8626 41.922 17.4352 41.6752C17.0051 41.4284 16.4605 41.5759 16.2137 42.0024L15.7872 42.741C13.5294 41.2853 11.6068 39.3619 10.1511 37.1049L10.8897 36.6784C11.3171 36.4316 11.4638 35.8844 11.217 35.4569C10.9693 35.0295 10.4238 34.8802 9.99551 35.1297L9.25422 35.558C8.04975 33.2304 7.32903 30.6211 7.19758 27.8572H8.04617C8.53976 27.8572 8.94036 27.4575 8.94036 26.963C8.94036 26.4685 8.53976 26.0688 8.04617 26.0688H7.19579C7.32724 23.304 8.04796 20.6947 9.25244 18.368L9.99372 18.7963C10.135 18.8777 10.2888 18.9162 10.4399 18.9162C10.7493 18.9162 11.0498 18.7552 11.2152 18.4691C11.462 18.0407 11.3153 17.4944 10.8879 17.2476L10.1493 16.8193C11.6051 14.5623 13.5285 12.6389 15.7854 11.1832L16.2119 11.9218C16.3783 12.2079 16.6778 12.3689 16.9872 12.3689C17.1383 12.3689 17.2921 12.3304 17.4334 12.2491C17.8608 12.0023 18.0075 11.455 17.7607 11.0276L17.3324 10.2863C19.6599 9.08182 22.2683 8.36111 25.0332 8.22966V9.07825C25.0332 9.57274 25.4338 9.97244 25.9273 9.97244C26.4209 9.97244 26.8215 9.57274 26.8215 9.07825V8.22966C29.5864 8.36021 32.1947 9.08182 34.5223 10.2863L34.094 11.0276C33.8472 11.4559 33.9939 12.0023 34.4213 12.2491C34.5626 12.3304 34.7164 12.3689 34.8675 12.3689C35.1769 12.3689 35.4773 12.2079 35.6427 11.9218L36.0693 11.1832C38.3271 12.6389 40.2496 14.5623 41.7054 16.8193L40.9668 17.2458C40.5394 17.4926 40.3927 18.0398 40.6395 18.4673C40.8058 18.7534 41.1054 18.9144 41.4148 18.9144C41.5659 18.9144 41.7197 18.8759 41.861 18.7945L42.6023 18.3662C43.8067 20.6938 44.5275 23.3031 44.6589 26.067H43.8103C43.3167 26.067 42.9161 26.4667 42.9161 26.9612C42.9161 27.4557 43.3167 27.8554 43.8103 27.8554H44.6589C44.5275 30.6202 43.8067 33.2295 42.6023 35.5562L41.861 35.1279C41.4318 34.8793 40.8863 35.0286 40.6395 35.4552C40.3927 35.8835 40.5394 36.4298 40.9668 36.6766L41.7054 37.1031C40.2514 39.3619 38.3289 41.2844 36.0711 42.741Z" fill="#ECC910"/>
</svg>
