<svg width="35" height="35" viewBox="0 0 35 35" fill="none" xmlns="http://www.w3.org/2000/svg">
<path d="M28 15.1667C25.2778 20.6111 20.6111 25.0833 15.1667 28L10.8889 23.7222C10.3056 23.139 9.52778 22.9445 8.94444 23.3333C6.80556 24.1111 4.4723 24.5 1.94445 24.5C0.777779 24.5 0 25.2778 0 26.4444V33.0556C0 34.2222 0.777779 35 1.94445 35C20.2222 35 35 20.2222 35 1.94444C35 0.777778 34.2222 0 33.0556 0H26.25C25.0833 0 24.3056 0.777778 24.3056 1.94444C24.3056 4.27778 23.9167 6.61111 23.1389 8.94444C22.9444 9.52778 23.1389 10.3056 23.5278 10.8889L28 15.1667Z" fill="#BCB7B7"/>
</svg>
