<svg width="15" height="9" viewBox="0 0 15 9" fill="none" xmlns="http://www.w3.org/2000/svg">
<path d="M14.2307 7.37165C14.2134 7.33432 14.1972 7.30335 14.1822 7.27854C13.934 6.83149 13.4597 6.28277 12.7595 5.63222L12.7447 5.61733L12.7373 5.61002L12.7298 5.60253H12.7223C12.4045 5.29961 12.2033 5.09592 12.119 4.99164C11.9648 4.79299 11.9303 4.59192 12.0145 4.38819C12.0741 4.23426 12.2977 3.90918 12.685 3.41251C12.8886 3.14929 13.0499 2.93832 13.1691 2.77939C14.0282 1.63718 14.4007 0.907288 14.2864 0.589436L14.2421 0.515159C14.2122 0.470441 14.1353 0.429532 14.0113 0.392224C13.887 0.354994 13.7281 0.348837 13.5344 0.373648L11.3892 0.388467C11.3545 0.376152 11.3048 0.3773 11.2402 0.392224C11.1756 0.407147 11.1433 0.414635 11.1433 0.414635L11.106 0.433289L11.0763 0.4557C11.0515 0.470519 11.0242 0.496583 10.9944 0.533839C10.9647 0.570965 10.9399 0.614535 10.9201 0.664183C10.6865 1.26506 10.421 1.82372 10.1229 2.34014C9.93919 2.64808 9.77044 2.91495 9.61632 3.14091C9.46242 3.3668 9.3333 3.53322 9.2291 3.6399C9.12474 3.74669 9.03056 3.83224 8.94597 3.89686C8.86152 3.96151 8.79705 3.98883 8.75241 3.97884C8.70767 3.96884 8.66553 3.95893 8.62564 3.94902C8.55617 3.9043 8.50028 3.84348 8.45815 3.76652C8.41583 3.68955 8.38734 3.59268 8.37244 3.47598C8.35762 3.3592 8.34886 3.25876 8.34635 3.17431C8.34403 3.08996 8.3451 2.97065 8.35013 2.81672C8.3553 2.66271 8.35762 2.55851 8.35762 2.50388C8.35762 2.31514 8.3613 2.11031 8.36869 1.88933C8.3762 1.66835 8.38228 1.49326 8.38737 1.36428C8.39243 1.23516 8.39478 1.09855 8.39478 0.954537C8.39478 0.810521 8.38601 0.697578 8.36869 0.615604C8.35157 0.533735 8.3253 0.454265 8.29068 0.377222C8.25585 0.300257 8.20487 0.240721 8.13797 0.198455C8.07095 0.156242 7.98762 0.122743 7.88845 0.0978529C7.62523 0.0382899 7.29006 0.0060691 6.88277 0.00105987C5.95916 -0.00885425 5.3657 0.0507869 5.10251 0.179905C4.99823 0.234459 4.90386 0.308997 4.81949 0.403286C4.73008 0.512576 4.7176 0.572217 4.78215 0.582027C5.08015 0.626667 5.29111 0.733452 5.41527 0.902279L5.46001 0.991741C5.49482 1.05629 5.52957 1.17056 5.56435 1.3344C5.59907 1.49825 5.62148 1.67949 5.63135 1.87804C5.65613 2.24061 5.65613 2.55097 5.63135 2.80915C5.60648 3.06744 5.583 3.26852 5.56059 3.41253C5.53818 3.55655 5.50468 3.67325 5.46001 3.7626C5.41527 3.85199 5.3855 3.90662 5.37058 3.92645C5.35568 3.94628 5.34326 3.95877 5.3334 3.96368C5.26886 3.98841 5.20173 4.00101 5.13225 4.00101C5.06267 4.00101 4.97829 3.96621 4.879 3.89665C4.77972 3.8271 4.6767 3.73156 4.56991 3.60987C4.46312 3.48817 4.34269 3.31809 4.20857 3.09961C4.07454 2.88114 3.93549 2.62293 3.79147 2.32498L3.67232 2.1089C3.59783 1.9699 3.49608 1.76749 3.36696 1.50187C3.23777 1.23615 3.12357 0.979113 3.0243 0.730817C2.98462 0.626536 2.925 0.547145 2.84556 0.492513L2.80828 0.470102C2.78349 0.450273 2.7437 0.429219 2.68912 0.406782C2.63447 0.384371 2.57743 0.368299 2.51779 0.358411L0.476817 0.37323C0.268255 0.37323 0.126744 0.420479 0.0522317 0.514846L0.0224111 0.559485C0.00751385 0.584349 0 0.624058 0 0.678716C0 0.733348 0.0148973 0.800398 0.0447179 0.879789C0.342663 1.58004 0.666672 2.25537 1.01674 2.90589C1.36682 3.55642 1.67102 4.08043 1.92918 4.47746C2.18739 4.87479 2.45059 5.24977 2.71876 5.60225C2.98694 5.95485 3.16445 6.18081 3.25131 6.28009C3.33826 6.37954 3.40657 6.45389 3.45622 6.50354L3.64247 6.68228C3.76165 6.80149 3.93666 6.94425 4.16758 7.11057C4.39855 7.277 4.65426 7.44084 4.93483 7.60237C5.21545 7.76363 5.54191 7.89522 5.91439 7.997C6.28683 8.09888 6.64932 8.13976 7.00192 8.12004H7.85855C8.03228 8.10504 8.16391 8.05041 8.25337 7.95612L8.28301 7.91878C8.30294 7.88915 8.32159 7.8431 8.33881 7.78113C8.35624 7.71907 8.3649 7.65068 8.3649 7.5763C8.35981 7.36281 8.37607 7.1704 8.41322 6.99909C8.45035 6.82784 8.49266 6.69872 8.53999 6.61176C8.58729 6.52489 8.64067 6.45157 8.70008 6.39214C8.75961 6.33258 8.80204 6.2965 8.82693 6.28408C8.85166 6.27158 8.87141 6.2631 8.88631 6.25801C9.00548 6.2183 9.14574 6.25676 9.30729 6.37356C9.46871 6.49026 9.62011 6.63436 9.76172 6.80561C9.90326 6.97702 10.0733 7.16933 10.2719 7.38282C10.4706 7.59639 10.6444 7.75515 10.7933 7.85959L10.9422 7.94897C11.0417 8.00861 11.1708 8.06324 11.3297 8.11289C11.4884 8.16251 11.6274 8.17493 11.7468 8.15012L13.6536 8.12038C13.8422 8.12038 13.9889 8.08915 14.093 8.02719C14.1973 7.96512 14.2593 7.89674 14.2793 7.82236C14.2992 7.7479 14.3003 7.66342 14.2831 7.56897C14.2654 7.47476 14.248 7.40889 14.2307 7.37165Z" fill="#F2C94C"/>
</svg>
