<svg width="30" height="18" viewBox="0 0 30 18" fill="none" xmlns="http://www.w3.org/2000/svg">
<path d="M29.5561 15.5411C29.5201 15.4635 29.4865 15.3992 29.4554 15.3477C28.9398 14.4192 27.9547 13.2795 26.5005 11.9284L26.4698 11.8975L26.4544 11.8823L26.4388 11.8667H26.4232C25.7632 11.2376 25.3453 10.8146 25.1703 10.598C24.85 10.1854 24.7783 9.76778 24.9533 9.34464C25.0769 9.02494 25.5414 8.34977 26.3457 7.31822C26.7687 6.77154 27.1037 6.33339 27.3512 6.00328C29.1356 3.631 29.9092 2.11508 29.6719 1.45493L29.5797 1.30066C29.5177 1.20778 29.3579 1.12282 29.1003 1.04533C28.8422 0.968007 28.5123 0.95522 28.1099 1.00675L23.6545 1.03753C23.5823 1.01195 23.4793 1.01434 23.345 1.04533C23.2109 1.07633 23.1438 1.09188 23.1438 1.09188L23.0662 1.13062L23.0047 1.17717C22.9531 1.20794 22.8964 1.26208 22.8344 1.33946C22.7728 1.41656 22.7213 1.50705 22.6801 1.61017C22.195 2.85814 21.6435 4.01843 21.0246 5.091C20.6429 5.73056 20.2924 6.28484 19.9724 6.75414C19.6527 7.22329 19.3846 7.56895 19.1681 7.79051C18.9514 8.0123 18.7558 8.18998 18.5801 8.3242C18.4047 8.45847 18.2708 8.5152 18.1781 8.49445C18.0852 8.4737 17.9977 8.4531 17.9148 8.43251C17.7705 8.33964 17.6544 8.21333 17.5669 8.05348C17.479 7.89363 17.4199 7.69244 17.3889 7.45006C17.3581 7.20752 17.3399 6.99891 17.3347 6.8235C17.3299 6.64832 17.3321 6.40052 17.3426 6.08082C17.3533 5.76096 17.3581 5.54454 17.3581 5.43107C17.3581 5.03909 17.3658 4.61367 17.3811 4.15471C17.3967 3.69575 17.4093 3.33211 17.4199 3.06421C17.4304 2.79604 17.4353 2.51232 17.4353 2.21321C17.4353 1.9141 17.4171 1.67953 17.3811 1.50928C17.3456 1.33924 17.291 1.17419 17.2191 1.01417C17.1468 0.854324 17.0409 0.730671 16.9019 0.642889C16.7627 0.555215 16.5897 0.48564 16.3837 0.433946C15.837 0.310238 15.1409 0.243318 14.295 0.232914C12.3767 0.212323 11.1441 0.336193 10.5975 0.604362C10.3809 0.717666 10.1849 0.872476 10.0097 1.06831C9.824 1.29529 9.7981 1.41916 9.93216 1.43954C10.5511 1.53225 10.9892 1.75404 11.2471 2.10468L11.34 2.29048C11.4123 2.42454 11.4845 2.66188 11.5567 3.00217C11.6288 3.34246 11.6754 3.71889 11.6959 4.13125C11.7474 4.88428 11.7474 5.52888 11.6959 6.06511C11.6442 6.60156 11.5955 7.01917 11.5489 7.31828C11.5024 7.61739 11.4328 7.85976 11.34 8.04535C11.2471 8.231 11.1853 8.34446 11.1543 8.38564C11.1233 8.42683 11.0975 8.45278 11.0771 8.46297C10.943 8.51434 10.8036 8.54051 10.6593 8.54051C10.5148 8.54051 10.3395 8.46822 10.1333 8.32376C9.92712 8.1793 9.71314 7.98087 9.49135 7.72815C9.26957 7.47537 9.01944 7.12212 8.74087 6.66837C8.46251 6.21461 8.1737 5.67833 7.87459 5.05952L7.62712 4.61074C7.47242 4.32204 7.26109 3.90166 6.99292 3.34999C6.72459 2.7981 6.48742 2.26426 6.28124 1.74856C6.19882 1.53198 6.07501 1.36709 5.91001 1.25362L5.83258 1.20708C5.7811 1.1659 5.69846 1.12217 5.58511 1.07557C5.47158 1.02902 5.35313 0.995642 5.22926 0.975105L0.990312 1.00588C0.557145 1.00588 0.263238 1.10402 0.108481 1.30001L0.0465462 1.39272C0.0156057 1.44436 0 1.52683 0 1.64035C0 1.75382 0.0309405 1.89308 0.0928756 2.05797C0.711685 3.51233 1.38463 4.91495 2.1117 6.26603C2.83877 7.61712 3.47059 8.70545 4.00676 9.53006C4.54305 10.3553 5.08968 11.1341 5.64666 11.8661C6.20364 12.5985 6.57233 13.0678 6.75272 13.274C6.93332 13.4805 7.07518 13.635 7.1783 13.7381L7.56513 14.1093C7.81266 14.3569 8.17614 14.6534 8.65574 14.9988C9.13546 15.3445 9.66654 15.6848 10.2493 16.0202C10.8321 16.3552 11.5101 16.6285 12.2837 16.8399C13.0573 17.0515 13.8101 17.1364 14.5424 17.0954H16.3216C16.6824 17.0643 16.9558 16.9508 17.1416 16.755L17.2032 16.6774C17.2446 16.6159 17.2833 16.5202 17.3191 16.3915C17.3553 16.2626 17.3733 16.1206 17.3733 15.9661C17.3627 15.5227 17.3965 15.1231 17.4736 14.7673C17.5507 14.4116 17.6386 14.1434 17.7369 13.9628C17.8351 13.7824 17.946 13.6301 18.0694 13.5067C18.193 13.383 18.2812 13.308 18.3328 13.2823C18.3842 13.2563 18.4252 13.2387 18.4562 13.2281C18.7037 13.1457 18.995 13.2255 19.3305 13.4681C19.6658 13.7105 19.9802 14.0098 20.2743 14.3654C20.5683 14.7214 20.9215 15.1209 21.334 15.5643C21.7467 16.0078 22.1076 16.3376 22.4169 16.5545L22.7262 16.7401C22.9327 16.864 23.2009 16.9774 23.531 17.0806C23.8605 17.1836 24.1492 17.2094 24.3971 17.1579L28.3574 17.0961C28.7492 17.0961 29.054 17.0313 29.2702 16.9026C29.4868 16.7737 29.6155 16.6316 29.657 16.4771C29.6984 16.3225 29.7006 16.147 29.6649 15.9509C29.6282 15.7552 29.592 15.6184 29.5561 15.5411Z" fill="#F2C94C"/>
</svg>
