<svg width="36" height="29" viewBox="0 0 36 29" fill="none" xmlns="http://www.w3.org/2000/svg">
<path d="M3.79517 13.8506H8.72888C8.93875 13.8506 9.10839 13.6649 9.10839 13.4361C9.10839 13.2074 8.93875 13.0217 8.72888 13.0217H3.79517C3.58529 13.0217 3.41565 13.2074 3.41565 13.4361C3.41565 13.6649 3.58529 13.8506 3.79517 13.8506Z" fill="black"/>
<path d="M13.6626 15.5081H3.79517C3.58529 15.5081 3.41565 15.6937 3.41565 15.9225C3.41565 16.1512 3.58529 16.3369 3.79517 16.3369H13.6626C13.8725 16.3369 14.0421 16.1512 14.0421 15.9225C14.0421 15.6937 13.8725 15.5081 13.6626 15.5081Z" fill="black"/>
<path d="M13.6626 17.9944H3.79517C3.58529 17.9944 3.41565 18.18 3.41565 18.4088C3.41565 18.6376 3.58529 18.8232 3.79517 18.8232H13.6626C13.8725 18.8232 14.0421 18.6376 14.0421 18.4088C14.0421 18.18 13.8725 17.9944 13.6626 17.9944Z" fill="black"/>
<path d="M20.5212 4.34786L7.56376 4.31885C6.32274 4.31885 5.31323 5.42119 5.31323 6.77632V8.89978L2.25053 8.90683C1.00951 8.90683 0 10.0092 0 11.3643V20.1254C0 21.4806 1.00951 22.5825 2.25053 22.5825H4.5542V26.7266C4.5542 26.8978 4.65059 27.0515 4.79709 27.1133C4.84149 27.1319 4.88779 27.1411 4.93371 27.1411C5.03846 27.1411 5.14131 27.0934 5.21455 27.0055L8.89738 22.5817L15.2072 22.5535C16.4482 22.5535 17.4578 21.4512 17.4578 20.0964V20.0496L19.454 22.4474C19.5273 22.5353 19.6301 22.5829 19.7348 22.5829C19.7808 22.5829 19.8271 22.5738 19.8715 22.5552C20.018 22.4934 20.1144 22.3397 20.1144 22.1685V18.0244H20.5204C21.7615 18.0244 22.771 16.922 22.771 15.5673V6.80533C22.771 5.45061 21.7618 4.34827 20.5212 4.34786ZM16.6987 20.096C16.6987 20.9941 16.0296 21.7243 15.2057 21.7243L8.72736 21.7533C8.62109 21.7537 8.51938 21.803 8.44803 21.8888L5.31323 25.6546V22.1677C5.31323 21.9389 5.14358 21.7533 4.93371 21.7533H2.25053C1.42812 21.7533 0.759033 21.0226 0.759033 20.125V11.3639C0.759033 10.4659 1.42812 9.73524 2.25129 9.73524L5.69275 9.72737C5.69312 9.72737 5.69312 9.72737 5.6935 9.72737L15.2072 9.70582C16.0296 9.70582 16.6987 10.4364 16.6987 11.3345V18.9767V20.096ZM22.0119 15.5665C22.0119 16.4645 21.3429 17.1947 20.5204 17.1947H19.7348C19.525 17.1947 19.3553 17.3804 19.3553 17.6091V21.096L17.4578 18.8167V11.3349C17.4578 9.97975 16.4482 8.87741 15.2065 8.87741L6.07226 8.89771V6.77591C6.07226 5.87787 6.74135 5.14726 7.563 5.14726L20.5201 5.17627C20.5204 5.17627 20.5204 5.17627 20.5208 5.17627C21.3432 5.17627 22.0123 5.90688 22.0123 6.80492V15.5665H22.0119Z" fill="white"/>
</svg>
